<mxfile host="app.diagrams.net" modified="2021-08-14T08:16:22.580Z" agent="5.0 (Macintosh; Intel Mac OS X 10_15_7) AppleWebKit/537.36 (KHTML, like Gecko) Chrome/92.0.4515.131 Safari/537.36" etag="JbQprA20cc1l-mngqy7s" version="14.9.4" type="github">
  <diagram id="STnNzxropm3wHewKxJZ3" name="Page-1">
    <mxGraphModel dx="541" dy="351" grid="1" gridSize="10" guides="1" tooltips="1" connect="1" arrows="1" fold="1" page="1" pageScale="1" pageWidth="827" pageHeight="1169" math="0" shadow="0">
      <root>
        <mxCell id="0" />
        <mxCell id="1" parent="0" />
      </root>
    </mxGraphModel>
  </diagram>
</mxfile>
